<svg xmlns="http://www.w3.org/2000/svg" width="720" height="80" viewBox="0 0 720 80" font-family="Inter, ui-sans-serif, system-ui, -apple-system, 'Segoe UI', Roboto, sans-serif"><defs>
  <filter id="cardShadow" x="-20%" y="-20%" width="140%" height="140%">
    <feDropShadow dx="0" dy="4" stdDeviation="10" flood-color="#0F172A" flood-opacity="0.06"/>
    <feDropShadow dx="0" dy="1" stdDeviation="2" flood-color="#0F172A" flood-opacity="0.04"/>
  </filter>
  <filter id="btnShadow" x="-20%" y="-20%" width="140%" height="140%">
    <feDropShadow dx="0" dy="4" stdDeviation="8" flood-color="#2563EB" flood-opacity="0.30"/>
  </filter>
  <filter id="modalShadow" x="-20%" y="-20%" width="140%" height="140%">
    <feDropShadow dx="0" dy="20" stdDeviation="40" flood-color="#0F172A" flood-opacity="0.25"/>
  </filter>
  <linearGradient id="brandGrad" x1="0" y1="0" x2="1" y2="1">
    <stop offset="0%" stop-color="#3B82F6"/>
    <stop offset="100%" stop-color="#1D4ED8"/>
  </linearGradient>
  <linearGradient id="loginBg" x1="0" y1="0" x2="1" y2="1">
    <stop offset="0%" stop-color="#EFF6FF"/>
    <stop offset="100%" stop-color="#DBEAFE"/>
  </linearGradient>
  <linearGradient id="heroOrb" x1="0" y1="0" x2="1" y2="1">
    <stop offset="0%" stop-color="#60A5FA" stop-opacity="0.5"/>
    <stop offset="100%" stop-color="#1D4ED8" stop-opacity="0.0"/>
  </linearGradient>
  <pattern id="dots" width="24" height="24" patternUnits="userSpaceOnUse">
    <circle cx="2" cy="2" r="1.2" fill="#2563EB" fill-opacity="0.10"/>
  </pattern>
</defs>
<rect x="0" y="0" width="720" height="80" rx="0" fill="#fff"/>
<rect x="24" y="28" width="82" height="28" rx="14" fill="#F1F5F9" stroke="#E2E8F0" stroke-width="1"/>
<text x="65.0" y="47" font-size="13" fill="#334155" font-weight="600" text-anchor="middle">Inicio</text>
<g transform="translate(110,30)"><path d="M9 6l6 6-6 6" stroke="#64748B" stroke-width="2" fill="none" stroke-linecap="round" stroke-linejoin="round"/></g>
<rect x="138" y="28" width="118" height="28" rx="14" fill="#F1F5F9" stroke="#E2E8F0" stroke-width="1"/>
<text x="197.0" y="47" font-size="13" fill="#334155" font-weight="600" text-anchor="middle">Test Plans</text>
<g transform="translate(260,30)"><path d="M9 6l6 6-6 6" stroke="#64748B" stroke-width="2" fill="none" stroke-linecap="round" stroke-linejoin="round"/></g>
<rect x="288" y="28" width="181" height="28" rx="14" fill="#EFF6FF" stroke="#BFDBFE" stroke-width="1"/>
<text x="378.5" y="47" font-size="13" fill="#1D4ED8" font-weight="600" text-anchor="middle">Onboarding App v2</text>
</svg>