<svg xmlns="http://www.w3.org/2000/svg" width="1440" height="900" viewBox="0 0 1440 900" font-family="Inter, ui-sans-serif, system-ui, -apple-system, 'Segoe UI', Roboto, sans-serif"><defs>
  <filter id="cardShadow" x="-20%" y="-20%" width="140%" height="140%">
    <feDropShadow dx="0" dy="4" stdDeviation="10" flood-color="#0F172A" flood-opacity="0.06"/>
    <feDropShadow dx="0" dy="1" stdDeviation="2" flood-color="#0F172A" flood-opacity="0.04"/>
  </filter>
  <filter id="btnShadow" x="-20%" y="-20%" width="140%" height="140%">
    <feDropShadow dx="0" dy="4" stdDeviation="8" flood-color="#2563EB" flood-opacity="0.30"/>
  </filter>
  <filter id="modalShadow" x="-20%" y="-20%" width="140%" height="140%">
    <feDropShadow dx="0" dy="20" stdDeviation="40" flood-color="#0F172A" flood-opacity="0.25"/>
  </filter>
  <linearGradient id="brandGrad" x1="0" y1="0" x2="1" y2="1">
    <stop offset="0%" stop-color="#3B82F6"/>
    <stop offset="100%" stop-color="#1D4ED8"/>
  </linearGradient>
  <linearGradient id="loginBg" x1="0" y1="0" x2="1" y2="1">
    <stop offset="0%" stop-color="#EFF6FF"/>
    <stop offset="100%" stop-color="#DBEAFE"/>
  </linearGradient>
  <linearGradient id="heroOrb" x1="0" y1="0" x2="1" y2="1">
    <stop offset="0%" stop-color="#60A5FA" stop-opacity="0.5"/>
    <stop offset="100%" stop-color="#1D4ED8" stop-opacity="0.0"/>
  </linearGradient>
  <pattern id="dots" width="24" height="24" patternUnits="userSpaceOnUse">
    <circle cx="2" cy="2" r="1.2" fill="#2563EB" fill-opacity="0.10"/>
  </pattern>
</defs>
<rect x="0" y="0" width="1440" height="900" rx="0" fill="#F8FAFC"/>
<rect x="0" y="0" width="248" height="900" rx="0" fill="#0F172A"/>
<rect x="20" y="22" width="40" height="40" rx="10" fill="url(#brandGrad)"/>
<g transform="translate(28,30)" stroke="#fff" stroke-width="2" fill="none"><rect x="3" y="3" width="7" height="7" rx="1.5"/><rect x="14" y="3" width="7" height="7" rx="1.5"/><rect x="3" y="14" width="7" height="7" rx="1.5"/><rect x="14" y="14" width="7" height="7" rx="1.5"/></g>
<text x="72" y="40" font-size="15" fill="#fff" font-weight="700" text-anchor="start">Usability</text>
<text x="72" y="58" font-size="15" fill="#BFDBFE" font-weight="700" text-anchor="start">Dashboard</text>
<rect x="16" y="84" width="216" height="52" rx="10" fill="#1E293B"/>
<circle cx="36" cy="110" r="12" fill="#2563EB"/>
<text x="36" y="114" font-size="12" fill="#fff" font-weight="700" text-anchor="middle">S</text>
<text x="56" y="104" font-size="12" fill="#fff" font-weight="600" text-anchor="start">Sebastián T.</text>
<text x="56" y="122" font-size="10" fill="#64748B" font-weight="400" text-anchor="start">Plan Pro · IHC Lab</text>
<g transform="translate(212,100)"><path d="M6 9l6 6 6-6" stroke="#64748B" stroke-width="2" fill="none" stroke-linecap="round" stroke-linejoin="round"/></g>
<text x="20" y="168" font-size="10" fill="#475569" font-weight="700" text-anchor="start" letter-spacing="1.5">PRINCIPAL</text>
<circle cx="34" cy="206" r="3" fill="#475569"/>
<text x="50" y="210" font-size="13" fill="#94A3B8" font-weight="500" text-anchor="start">Resumen</text>
<circle cx="34" cy="250" r="3" fill="#475569"/>
<text x="50" y="254" font-size="13" fill="#94A3B8" font-weight="500" text-anchor="start">Evaluaciones</text>
<rect x="12" y="276" width="224" height="36" rx="8" fill="#1E293B"/>
<rect x="12" y="276" width="3" height="36" rx="2" fill="#2563EB"/>
<circle cx="34" cy="294" r="3" fill="#2563EB"/>
<text x="50" y="298" font-size="13" fill="#fff" font-weight="600" text-anchor="start">Test Plans</text>
<circle cx="34" cy="338" r="3" fill="#475569"/>
<text x="50" y="342" font-size="13" fill="#94A3B8" font-weight="500" text-anchor="start">Participantes</text>
<circle cx="34" cy="382" r="3" fill="#475569"/>
<text x="50" y="386" font-size="13" fill="#94A3B8" font-weight="500" text-anchor="start">Hallazgos</text>
<rect x="200" y="374" width="28" height="16" rx="8" fill="#DC2626"/>
<text x="214" y="386" font-size="10" fill="#fff" font-weight="700" text-anchor="middle">3</text>
<circle cx="34" cy="426" r="3" fill="#475569"/>
<text x="50" y="430" font-size="13" fill="#94A3B8" font-weight="500" text-anchor="start">Reportes</text>
<text x="20" y="480" font-size="10" fill="#475569" font-weight="700" text-anchor="start" letter-spacing="1.5">GESTIÓN</text>
<circle cx="34" cy="508" r="3" fill="#475569"/>
<text x="50" y="512" font-size="13" fill="#94A3B8" font-weight="500" text-anchor="start">Equipo</text>
<circle cx="34" cy="548" r="3" fill="#475569"/>
<text x="50" y="552" font-size="13" fill="#94A3B8" font-weight="500" text-anchor="start">Configuración</text>
<circle cx="34" cy="588" r="3" fill="#475569"/>
<text x="50" y="592" font-size="13" fill="#94A3B8" font-weight="500" text-anchor="start">Ayuda</text>
<rect x="16" y="772" width="216" height="108" rx="12" fill="#1E293B"/>
<rect x="16" y="772" width="216" height="108" rx="12" fill="url(#heroOrb)"/>
<g transform="translate(28,782)" fill="#fff"><path d="M12 2l1.6 4.4L18 8l-4.4 1.6L12 14l-1.6-4.4L6 8l4.4-1.6L12 2z"/></g>
<text x="28" y="828" font-size="13" fill="#fff" font-weight="700" text-anchor="start">Sumá observadores</text>
<text x="28" y="846" font-size="11" fill="#BFDBFE" font-weight="400" text-anchor="start">Invitá hasta 5 personas</text>
<rect x="28" y="856" width="96" height="28" rx="8" fill="#2563EB"/>
<text x="76" y="875" font-size="11" fill="#fff" font-weight="700" text-anchor="middle">Invitar</text>
<rect x="248" y="0" width="1192" height="72" rx="0" fill="#fff"/>
<line x1="248" y1="72" x2="1440" y2="72" stroke="#E2E8F0" stroke-width="1"/>
<rect x="272" y="18" width="78" height="26" rx="13" fill="#F1F5F9" stroke="#E2E8F0" stroke-width="1"/>
<text x="311.0" y="36" font-size="12" fill="#334155" font-weight="600" text-anchor="middle">Inicio</text>
<g transform="translate(354,19)"><path d="M9 6l6 6-6 6" stroke="#64748B" stroke-width="2" fill="none" stroke-linecap="round" stroke-linejoin="round"/></g>
<rect x="380" y="18" width="114" height="26" rx="13" fill="#F1F5F9" stroke="#E2E8F0" stroke-width="1"/>
<text x="437.0" y="36" font-size="12" fill="#334155" font-weight="600" text-anchor="middle">Test Plans</text>
<g transform="translate(498,19)"><path d="M9 6l6 6-6 6" stroke="#64748B" stroke-width="2" fill="none" stroke-linecap="round" stroke-linejoin="round"/></g>
<rect x="524" y="18" width="177" height="26" rx="13" fill="#EFF6FF" stroke="#BFDBFE" stroke-width="1"/>
<text x="612.5" y="36" font-size="12" fill="#1D4ED8" font-weight="600" text-anchor="middle">Onboarding App v2</text>
<rect x="272" y="50" width="380" height="0" rx="8" fill="none"/>
<rect x="1096" y="16" width="320" height="40" rx="10" fill="#F8FAFC" stroke="#E2E8F0" stroke-width="1"/>
<g transform="translate(1108,24)" stroke="#64748B" stroke-width="2" fill="none" stroke-linecap="round" stroke-linejoin="round"><circle cx="9" cy="9" r="7"/><path d="M14 14l5 5"/></g>
<text x="1140" y="41" font-size="12" fill="#64748B" font-weight="400" text-anchor="start">Buscar evaluaciones, hallazgos…</text>
<rect x="1356" y="22" width="50" height="18" rx="4" fill="#fff" stroke="#E2E8F0" stroke-width="1"/>
<text x="1381" y="35" font-size="10" fill="#64748B" font-weight="600" text-anchor="middle">⌘K</text>
<circle cx="1264" cy="36" r="18" fill="#F8FAFC" stroke="#E2E8F0" stroke-width="1"/>
<g transform="translate(1252,24)" stroke="#334155" stroke-width="2" fill="none" stroke-linecap="round" stroke-linejoin="round"><path d="M18 16v-5a6 6 0 0 0-12 0v5l-2 2h16l-2-2z"/><path d="M10 21a2 2 0 0 0 4 0"/></g>
<circle cx="1272" cy="28" r="4" fill="#DC2626" stroke="#fff" stroke-width="2"/>
<circle cx="1302" cy="36" r="18" fill="#FDE68A"/>
<text x="1302" y="41" font-size="12" fill="#92400E" font-weight="700" text-anchor="middle">ST</text>
<rect x="1330" y="16" width="86" height="40" rx="10" fill="#2563EB" filter="url(#btnShadow)"/>
<g transform="translate(1336,24)" stroke="#fff" stroke-width="2.2" stroke-linecap="round"><line x1="12" y1="5" x2="12" y2="19"/><line x1="5" y1="12" x2="19" y2="12"/></g>
<text x="1382" y="41" font-size="13" fill="#fff" font-weight="600" text-anchor="middle">Nuevo</text>
<text x="272" y="110" font-size="22" fill="#0F172A" font-weight="700" text-anchor="start">Crear Test Plan — Onboarding App v2</text>
<text x="272" y="132" font-size="13" fill="#64748B" font-weight="400" text-anchor="start">Definí escenarios y métricas siguiendo ISO 9241-11</text>
<rect x="1180" y="92" width="110" height="38" rx="10" fill="#fff" stroke="#E2E8F0" stroke-width="1"/>
<text x="1235" y="116" font-size="12" fill="#334155" font-weight="600" text-anchor="middle">Vista previa</text>
<rect x="1300" y="92" width="116" height="38" rx="10" fill="#2563EB" filter="url(#btnShadow)"/>
<text x="1358" y="116" font-size="11.5" fill="#fff" font-weight="600" text-anchor="middle">Guardar borrador</text>
<rect x="272" y="156" width="1144" height="96" rx="14" fill="#fff" stroke="#E2E8F0" stroke-width="1" filter="url(#cardShadow)"/>
<rect x="332" y="197" width="1024" height="6" rx="3" fill="#E2E8F0"/>
<rect x="332" y="197" width="512.0" height="6" rx="3" fill="#2563EB"/>
<circle cx="332.0" cy="200" r="18" fill="#2563EB"/>
<g transform="translate(320.0,188)"><path d="M5 12l4 4 10-10" stroke="#fff" stroke-width="2.5" fill="none" stroke-linecap="round" stroke-linejoin="round"/></g>
<text x="332.0" y="244" font-size="12" fill="#0F172A" font-weight="500" text-anchor="middle">Información</text>
<circle cx="588.0" cy="200" r="18" fill="#2563EB"/>
<g transform="translate(576.0,188)"><path d="M5 12l4 4 10-10" stroke="#fff" stroke-width="2.5" fill="none" stroke-linecap="round" stroke-linejoin="round"/></g>
<text x="588.0" y="244" font-size="12" fill="#0F172A" font-weight="500" text-anchor="middle">Escenarios</text>
<circle cx="844.0" cy="200" r="20" fill="#fff" stroke="#2563EB" stroke-width="3"/>
<circle cx="844.0" cy="200" r="12" fill="#2563EB"/>
<text x="844.0" y="205" font-size="12" fill="#fff" font-weight="700" text-anchor="middle">3</text>
<text x="844.0" y="244" font-size="12" fill="#0F172A" font-weight="700" text-anchor="middle">Métricas</text>
<circle cx="1100.0" cy="200" r="18" fill="#fff" stroke="#CBD5E1" stroke-width="2"/>
<text x="1100.0" y="205" font-size="12" fill="#64748B" font-weight="700" text-anchor="middle">4</text>
<text x="1100.0" y="244" font-size="12" fill="#64748B" font-weight="500" text-anchor="middle">Participantes</text>
<circle cx="1356.0" cy="200" r="18" fill="#fff" stroke="#CBD5E1" stroke-width="2"/>
<text x="1356.0" y="205" font-size="12" fill="#64748B" font-weight="700" text-anchor="middle">5</text>
<text x="1356.0" y="244" font-size="12" fill="#64748B" font-weight="500" text-anchor="middle">Revisión</text>
<rect x="272" y="276" width="364" height="168" rx="14" fill="#0F172A" filter="url(#cardShadow)"/>
<rect x="272" y="276" width="364" height="168" rx="14" fill="url(#heroOrb)"/>
<text x="296" y="306" font-size="10" fill="#BFDBFE" font-weight="700" text-anchor="start" letter-spacing="1.4">EFECTIVIDAD GLOBAL</text>
<text x="296" y="368" font-size="64" fill="#fff" font-weight="800" text-anchor="start">92</text>
<text x="390" y="368" font-size="28" fill="#BFDBFE" font-weight="700" text-anchor="start">%</text>
<rect x="296" y="384" width="14" height="14" rx="4" fill="#10B981"/>
<text x="302" y="396" font-size="10" fill="#fff" font-weight="400" text-anchor="middle">▲</text>
<text x="316" y="396" font-size="12" fill="#A7F3D0" font-weight="600" text-anchor="start">+4.2 vs sem. anterior</text>
<path d="M 296 396 L 332 386 L 368 390 L 404 376 L 440 380 L 476 364 L 512 368 L 548 354 L 584 342 L 612 334" fill="none" stroke="#60A5FA" stroke-width="2.5" stroke-linecap="round"/>
<rect x="652" y="276" width="290" height="76" rx="12" fill="#fff" stroke="#E2E8F0" stroke-width="1" filter="url(#cardShadow)"/>
<text x="670" y="298" font-size="10" fill="#64748B" font-weight="700" text-anchor="start" letter-spacing="1.2">EFICIENCIA</text>
<text x="670" y="334" font-size="26" fill="#0F172A" font-weight="800" text-anchor="start">4.2</text>
<text x="715" y="334" font-size="14" fill="#64748B" font-weight="700" text-anchor="start">s</text>
<text x="930" y="306" font-size="11" fill="#10B981" font-weight="700" text-anchor="end">▼ -0.8s</text>
<text x="930" y="338" font-size="11" fill="#64748B" font-weight="400" text-anchor="end">tiempo prom.</text>
<rect x="958" y="276" width="290" height="76" rx="12" fill="#fff" stroke="#E2E8F0" stroke-width="1" filter="url(#cardShadow)"/>
<text x="976" y="298" font-size="10" fill="#64748B" font-weight="700" text-anchor="start" letter-spacing="1.2">SATISFACCIÓN</text>
<text x="976" y="334" font-size="26" fill="#0F172A" font-weight="800" text-anchor="start">4.6</text>
<text x="1021" y="334" font-size="14" fill="#64748B" font-weight="700" text-anchor="start">/5</text>
<text x="1236" y="306" font-size="11" fill="#10B981" font-weight="700" text-anchor="end">▲ +0.3</text>
<text x="1236" y="338" font-size="11" fill="#64748B" font-weight="400" text-anchor="end">SUS</text>
<rect x="652" y="360" width="290" height="76" rx="12" fill="#fff" stroke="#E2E8F0" stroke-width="1" filter="url(#cardShadow)"/>
<text x="670" y="382" font-size="10" fill="#64748B" font-weight="700" text-anchor="start" letter-spacing="1.2">HALLAZGOS</text>
<text x="670" y="418" font-size="26" fill="#0F172A" font-weight="800" text-anchor="start">12</text>
<text x="700" y="418" font-size="14" fill="#64748B" font-weight="700" text-anchor="start"></text>
<text x="930" y="390" font-size="11" fill="#DC2626" font-weight="700" text-anchor="end">▲ +2</text>
<text x="930" y="422" font-size="11" fill="#64748B" font-weight="400" text-anchor="end">3 críticos</text>
<rect x="958" y="360" width="290" height="76" rx="12" fill="#fff" stroke="#E2E8F0" stroke-width="1" filter="url(#cardShadow)"/>
<text x="976" y="382" font-size="10" fill="#64748B" font-weight="700" text-anchor="start" letter-spacing="1.2">PARTICIPANTES</text>
<text x="976" y="418" font-size="26" fill="#0F172A" font-weight="800" text-anchor="start">28</text>
<text x="1006" y="418" font-size="14" fill="#64748B" font-weight="700" text-anchor="start"></text>
<text x="1236" y="390" font-size="11" fill="#64748B" font-weight="700" text-anchor="end">—</text>
<text x="1236" y="422" font-size="11" fill="#64748B" font-weight="400" text-anchor="end">6 esta sem.</text>
<rect x="272" y="460" width="1144" height="64" rx="12" fill="#fff" stroke="#E2E8F0" stroke-width="1" filter="url(#cardShadow)"/>
<rect x="288" y="474" width="360" height="36" rx="8" fill="#F8FAFC" stroke="#E2E8F0" stroke-width="1"/>
<g transform="translate(300,482)" stroke="#64748B" stroke-width="2" fill="none" stroke-linecap="round" stroke-linejoin="round"><circle cx="9" cy="9" r="7"/><path d="M14 14l5 5"/></g>
<text x="328" y="498" font-size="13" fill="#64748B" font-weight="400" text-anchor="start">Buscar evaluación, participante, hallazgo…</text>
<rect x="664" y="476" width="147" height="32" rx="16" fill="#fff" stroke="#E2E8F0" stroke-width="1"/>
<text x="737.5" y="496" font-size="12" fill="#334155" font-weight="600" text-anchor="middle">Estado: Todos</text>
<rect x="819" y="476" width="156" height="32" rx="16" fill="#EFF6FF" stroke="#2563EB" stroke-width="1"/>
<text x="897.0" y="496" font-size="12" fill="#1D4ED8" font-weight="600" text-anchor="middle">Tipo: Moderado</text>
<circle cx="963" cy="482" r="7" fill="#2563EB"/>
<text x="963" y="485" font-size="11" fill="#fff" font-weight="700" text-anchor="middle">×</text>
<rect x="983" y="476" width="165" height="32" rx="16" fill="#EFF6FF" stroke="#2563EB" stroke-width="1"/>
<text x="1065.5" y="496" font-size="12" fill="#1D4ED8" font-weight="600" text-anchor="middle">Severidad: Alta</text>
<circle cx="1136" cy="482" r="7" fill="#2563EB"/>
<text x="1136" y="485" font-size="11" fill="#fff" font-weight="700" text-anchor="middle">×</text>
<rect x="1156" y="476" width="156" height="32" rx="16" fill="#fff" stroke="#E2E8F0" stroke-width="1"/>
<text x="1234.0" y="496" font-size="12" fill="#334155" font-weight="600" text-anchor="middle">Fecha: 30 días</text>
<rect x="1320" y="476" width="147" height="32" rx="16" fill="#fff" stroke="#E2E8F0" stroke-width="1"/>
<text x="1393.5" y="496" font-size="12" fill="#334155" font-weight="600" text-anchor="middle">+ Más filtros</text>
<rect x="272" y="540" width="1144" height="320" rx="14" fill="#fff" stroke="#E2E8F0" stroke-width="1" filter="url(#cardShadow)"/>
<rect x="272" y="540" width="1144" height="44" rx="14" fill="#F8FAFC"/>
<rect x="272" y="570" width="1144" height="14" rx="0" fill="#F8FAFC"/>
<line x1="272" y1="584" x2="1416" y2="584" stroke="#E2E8F0" stroke-width="1"/>
<text x="296" y="568" font-size="11" fill="#64748B" font-weight="700" text-anchor="start" letter-spacing="0.8">Evaluación</text>
<text x="612" y="568" font-size="11" fill="#64748B" font-weight="700" text-anchor="start" letter-spacing="0.8">Tipo</text>
<text x="742" y="568" font-size="11" fill="#64748B" font-weight="700" text-anchor="start" letter-spacing="0.8">Estado</text>
<text x="872" y="568" font-size="11" fill="#64748B" font-weight="700" text-anchor="start" letter-spacing="0.8">Efectividad</text>
<text x="1012" y="568" font-size="11" fill="#64748B" font-weight="700" text-anchor="start" letter-spacing="0.8">Hallazgos</text>
<text x="1132" y="568" font-size="11" fill="#64748B" font-weight="700" text-anchor="start" letter-spacing="0.8">Fecha</text>
<text x="1266" y="568" font-size="11" fill="#64748B" font-weight="700" text-anchor="start" letter-spacing="0.8">Acciones</text>
<line x1="296" y1="644" x2="1392" y2="644" stroke="#E2E8F0" stroke-width="1"/>
<rect x="272" y="602" width="0" height="0" rx="8" fill="none"/>
<text x="296" y="610" font-size="14" fill="#0F172A" font-weight="700" text-anchor="start">Onboarding App Móvil v2</text>
<text x="296" y="628" font-size="11" fill="#64748B" font-weight="400" text-anchor="start">Mobile App · Sprint 14</text>
<text x="612" y="616" font-size="12" fill="#334155" font-weight="400" text-anchor="start">Moderado</text>
<rect x="742" y="602" width="94" height="24" rx="12" fill="#FFFBEB" stroke="#FDE68A" stroke-width="1"/>
<circle cx="754" cy="614" r="3.5" fill="#92400E"/>
<text x="795.0" y="618" font-size="11" fill="#92400E" font-weight="700" text-anchor="middle">En curso</text>
<text x="872" y="616" font-size="14" fill="#0F172A" font-weight="700" text-anchor="start">—</text>
<text x="1012" y="616" font-size="14" fill="#DC2626" font-weight="700" text-anchor="start">4</text>
<text x="1132" y="616" font-size="12" fill="#334155" font-weight="400" text-anchor="start">Hoy</text>
<rect x="1256" y="600" width="56" height="28" rx="8" fill="#fff" stroke="#E2E8F0" stroke-width="1"/>
<text x="1284" y="618" font-size="11" fill="#334155" font-weight="600" text-anchor="middle">Ver</text>
<rect x="1318" y="600" width="32" height="28" rx="8" fill="#fff" stroke="#E2E8F0" stroke-width="1"/>
<g transform="translate(1322,604)" stroke="#2563EB" stroke-width="2" fill="none" stroke-linecap="round" stroke-linejoin="round"><path d="M12 20h9"/><path d="M16.5 3.5a2.121 2.121 0 0 1 3 3L7 19l-4 1 1-4 12.5-12.5z"/></g>
<rect x="1354" y="600" width="32" height="28" rx="8" fill="#FEF2F2" stroke="#FECACA" stroke-width="1"/>
<g transform="translate(1358,604)" stroke="#DC2626" stroke-width="2" fill="none" stroke-linecap="round" stroke-linejoin="round"><path d="M3 6h18"/><path d="M8 6V4a2 2 0 0 1 2-2h4a2 2 0 0 1 2 2v2"/><path d="M19 6l-1 14a2 2 0 0 1-2 2H8a2 2 0 0 1-2-2L5 6"/></g>
<rect x="273" y="648" width="1142" height="60" rx="0" fill="#EFF6FF"/>
<rect x="273" y="648" width="3" height="60" rx="0" fill="#2563EB"/>
<line x1="296" y1="708" x2="1392" y2="708" stroke="#E2E8F0" stroke-width="1"/>
<rect x="272" y="666" width="0" height="0" rx="8" fill="none"/>
<text x="296" y="674" font-size="14" fill="#0F172A" font-weight="700" text-anchor="start">Checkout Flow</text>
<text x="296" y="692" font-size="11" fill="#64748B" font-weight="400" text-anchor="start">E-commerce · v2.3</text>
<text x="612" y="680" font-size="12" fill="#334155" font-weight="400" text-anchor="start">No moderado</text>
<rect x="742" y="666" width="94" height="24" rx="12" fill="#ECFDF5" stroke="#A7F3D0" stroke-width="1"/>
<circle cx="754" cy="678" r="3.5" fill="#065F46"/>
<text x="795.0" y="682" font-size="11" fill="#065F46" font-weight="700" text-anchor="middle">Completo</text>
<text x="872" y="680" font-size="14" fill="#0F172A" font-weight="700" text-anchor="start">94%</text>
<text x="1012" y="680" font-size="14" fill="#334155" font-weight="700" text-anchor="start">2</text>
<text x="1132" y="680" font-size="12" fill="#334155" font-weight="400" text-anchor="start">08 May</text>
<rect x="1256" y="664" width="56" height="28" rx="8" fill="#fff" stroke="#E2E8F0" stroke-width="1"/>
<text x="1284" y="682" font-size="11" fill="#334155" font-weight="600" text-anchor="middle">Ver</text>
<rect x="1318" y="664" width="32" height="28" rx="8" fill="#fff" stroke="#E2E8F0" stroke-width="1"/>
<g transform="translate(1322,668)" stroke="#2563EB" stroke-width="2" fill="none" stroke-linecap="round" stroke-linejoin="round"><path d="M12 20h9"/><path d="M16.5 3.5a2.121 2.121 0 0 1 3 3L7 19l-4 1 1-4 12.5-12.5z"/></g>
<rect x="1354" y="664" width="32" height="28" rx="8" fill="#FEF2F2" stroke="#FECACA" stroke-width="1"/>
<g transform="translate(1358,668)" stroke="#DC2626" stroke-width="2" fill="none" stroke-linecap="round" stroke-linejoin="round"><path d="M3 6h18"/><path d="M8 6V4a2 2 0 0 1 2-2h4a2 2 0 0 1 2 2v2"/><path d="M19 6l-1 14a2 2 0 0 1-2 2H8a2 2 0 0 1-2-2L5 6"/></g>
<line x1="296" y1="772" x2="1392" y2="772" stroke="#E2E8F0" stroke-width="1"/>
<rect x="272" y="730" width="0" height="0" rx="8" fill="none"/>
<text x="296" y="738" font-size="14" fill="#0F172A" font-weight="700" text-anchor="start">Búsqueda avanzada</text>
<text x="296" y="756" font-size="11" fill="#64748B" font-weight="400" text-anchor="start">Catálogo · MVP</text>
<text x="612" y="744" font-size="12" fill="#334155" font-weight="400" text-anchor="start">Moderado</text>
<rect x="742" y="730" width="94" height="24" rx="12" fill="#ECFDF5" stroke="#A7F3D0" stroke-width="1"/>
<circle cx="754" cy="742" r="3.5" fill="#065F46"/>
<text x="795.0" y="746" font-size="11" fill="#065F46" font-weight="700" text-anchor="middle">Completo</text>
<text x="872" y="744" font-size="14" fill="#0F172A" font-weight="700" text-anchor="start">88%</text>
<text x="1012" y="744" font-size="14" fill="#DC2626" font-weight="700" text-anchor="start">5</text>
<text x="1132" y="744" font-size="12" fill="#334155" font-weight="400" text-anchor="start">03 May</text>
<rect x="1256" y="728" width="56" height="28" rx="8" fill="#fff" stroke="#E2E8F0" stroke-width="1"/>
<text x="1284" y="746" font-size="11" fill="#334155" font-weight="600" text-anchor="middle">Ver</text>
<rect x="1318" y="728" width="32" height="28" rx="8" fill="#fff" stroke="#E2E8F0" stroke-width="1"/>
<g transform="translate(1322,732)" stroke="#2563EB" stroke-width="2" fill="none" stroke-linecap="round" stroke-linejoin="round"><path d="M12 20h9"/><path d="M16.5 3.5a2.121 2.121 0 0 1 3 3L7 19l-4 1 1-4 12.5-12.5z"/></g>
<rect x="1354" y="728" width="32" height="28" rx="8" fill="#FEF2F2" stroke="#FECACA" stroke-width="1"/>
<g transform="translate(1358,732)" stroke="#DC2626" stroke-width="2" fill="none" stroke-linecap="round" stroke-linejoin="round"><path d="M3 6h18"/><path d="M8 6V4a2 2 0 0 1 2-2h4a2 2 0 0 1 2 2v2"/><path d="M19 6l-1 14a2 2 0 0 1-2 2H8a2 2 0 0 1-2-2L5 6"/></g>
<rect x="272" y="794" width="0" height="0" rx="8" fill="none"/>
<text x="296" y="802" font-size="14" fill="#0F172A" font-weight="700" text-anchor="start">Panel admin</text>
<text x="296" y="820" font-size="11" fill="#64748B" font-weight="400" text-anchor="start">Backoffice</text>
<text x="612" y="808" font-size="12" fill="#334155" font-weight="400" text-anchor="start">Heurístico</text>
<rect x="742" y="794" width="94" height="24" rx="12" fill="#F1F5F9" stroke="#E2E8F0" stroke-width="1"/>
<circle cx="754" cy="806" r="3.5" fill="#475569"/>
<text x="795.0" y="810" font-size="11" fill="#475569" font-weight="700" text-anchor="middle">Borrador</text>
<text x="872" y="808" font-size="14" fill="#0F172A" font-weight="700" text-anchor="start">—</text>
<text x="1012" y="808" font-size="14" fill="#334155" font-weight="700" text-anchor="start">0</text>
<text x="1132" y="808" font-size="12" fill="#334155" font-weight="400" text-anchor="start">01 May</text>
<rect x="1256" y="792" width="56" height="28" rx="8" fill="#fff" stroke="#E2E8F0" stroke-width="1"/>
<text x="1284" y="810" font-size="11" fill="#334155" font-weight="600" text-anchor="middle">Ver</text>
<rect x="1318" y="792" width="32" height="28" rx="8" fill="#fff" stroke="#E2E8F0" stroke-width="1"/>
<g transform="translate(1322,796)" stroke="#2563EB" stroke-width="2" fill="none" stroke-linecap="round" stroke-linejoin="round"><path d="M12 20h9"/><path d="M16.5 3.5a2.121 2.121 0 0 1 3 3L7 19l-4 1 1-4 12.5-12.5z"/></g>
<rect x="1354" y="792" width="32" height="28" rx="8" fill="#FEF2F2" stroke="#FECACA" stroke-width="1"/>
<g transform="translate(1358,796)" stroke="#DC2626" stroke-width="2" fill="none" stroke-linecap="round" stroke-linejoin="round"><path d="M3 6h18"/><path d="M8 6V4a2 2 0 0 1 2-2h4a2 2 0 0 1 2 2v2"/><path d="M19 6l-1 14a2 2 0 0 1-2 2H8a2 2 0 0 1-2-2L5 6"/></g>
<rect x="272" y="800" width="420" height="64" rx="12" fill="#0F172A" filter="url(#modalShadow)"/>
<rect x="272" y="800" width="4" height="64" rx="2" fill="#10B981"/>
<circle cx="306" cy="832" r="14" fill="#10B981"/>
<g transform="translate(294,820)"><path d="M5 12l4 4 10-10" stroke="#fff" stroke-width="2.5" fill="none" stroke-linecap="round" stroke-linejoin="round"/></g>
<text x="330" y="826" font-size="13" fill="#fff" font-weight="700" text-anchor="start">Hallazgo eliminado</text>
<text x="330" y="844" font-size="11" fill="#CBD5E1" font-weight="400" text-anchor="start">Se removió «Tooltip ambiguo en checkout».</text>
<rect x="564" y="818" width="90" height="28" rx="8" fill="#fff"/>
<g transform="translate(574,822)" stroke="#0F172A" stroke-width="2" fill="none" stroke-linecap="round" stroke-linejoin="round"><path d="M9 14l-4-4 4-4"/><path d="M5 10h9a5 5 0 0 1 0 10h-1"/></g>
<text x="624" y="836" font-size="12" fill="#0F172A" font-weight="700" text-anchor="middle">Deshacer</text>
<text x="667" y="858" font-size="10" fill="#64748B" font-weight="400" text-anchor="start">5s</text>
<rect x="0" y="0" width="1440" height="900" rx="0" fill="#0F172A" fill-opacity="0.55"/>
<rect x="480" y="260" width="480" height="380" rx="16" fill="#fff" filter="url(#modalShadow)"/>
<circle cx="720.0" cy="322" r="32" fill="#FEF2F2"/>
<g transform="translate(708.0,310)" stroke="#DC2626" stroke-width="2" fill="none" stroke-linecap="round" stroke-linejoin="round"><path d="M3 6h18"/><path d="M8 6V4a2 2 0 0 1 2-2h4a2 2 0 0 1 2 2v2"/><path d="M19 6l-1 14a2 2 0 0 1-2 2H8a2 2 0 0 1-2-2L5 6"/></g>
<text x="720.0" y="378" font-size="20" fill="#0F172A" font-weight="700" text-anchor="middle">Eliminar evaluación</text>
<text x="720.0" y="402" font-size="13" fill="#334155" font-weight="400" text-anchor="middle">Esta acción no se puede deshacer. Se eliminarán</text>
<text x="720.0" y="420" font-size="13" fill="#334155" font-weight="400" text-anchor="middle">los hallazgos y observaciones asociadas.</text>
<rect x="504" y="442" width="432" height="56" rx="10" fill="#FFFBEB" stroke="#FDE68A" stroke-width="1"/>
<g transform="translate(514,456)" stroke="#F59E0B" stroke-width="2" fill="none" stroke-linecap="round" stroke-linejoin="round"><path d="M12 9v4"/><path d="M12 17h.01"/><path d="M10.29 3.86L1.82 18a2 2 0 0 0 1.71 3h16.94a2 2 0 0 0 1.71-3L13.71 3.86a2 2 0 0 0-3.42 0z"/></g>
<text x="542" y="466" font-size="12" fill="#92400E" font-weight="600" text-anchor="start">Para confirmar, escribí </text>
<rect x="680" y="453" width="70" height="20" rx="4" fill="#fff" stroke="#FDE68A" stroke-width="1"/>
<text x="715" y="467" font-size="11" fill="#DC2626" font-weight="800" text-anchor="middle">BORRAR</text>
<text x="542" y="486" font-size="11" fill="#92400E" font-weight="400" text-anchor="start">Se eliminarán 4 hallazgos y 12 observaciones.</text>
<text x="504" y="520" font-size="12" fill="#334155" font-weight="600" text-anchor="start">Confirmación</text>
<rect x="504" y="528" width="432" height="44" rx="10" fill="#fff" stroke="#DC2626" stroke-width="2"/>
<text x="518" y="556" font-size="15" fill="#0F172A" font-weight="700" text-anchor="start">BORRA</text>
<rect x="576" y="538" width="2" height="22" rx="8" fill="#0F172A"/>
<rect x="504" y="592" width="200" height="40" rx="10" fill="#fff" stroke="#E2E8F0" stroke-width="1"/>
<text x="604" y="617" font-size="13" fill="#334155" font-weight="600" text-anchor="middle">Cancelar</text>
<rect x="736" y="592" width="200" height="40" rx="10" fill="#DC2626"/>
<text x="836" y="617" font-size="12.5" fill="#fff" font-weight="700" text-anchor="middle">Eliminar definitivamente</text>
<text x="938" y="286" font-size="16" fill="#64748B" font-weight="400" text-anchor="middle">✕</text>
</svg>