<svg xmlns="http://www.w3.org/2000/svg" width="1440" height="900" viewBox="0 0 1440 900" font-family="Inter, ui-sans-serif, system-ui, -apple-system, 'Segoe UI', Roboto, sans-serif"><defs>
  <filter id="cardShadow" x="-20%" y="-20%" width="140%" height="140%">
    <feDropShadow dx="0" dy="4" stdDeviation="10" flood-color="#0F172A" flood-opacity="0.06"/>
    <feDropShadow dx="0" dy="1" stdDeviation="2" flood-color="#0F172A" flood-opacity="0.04"/>
  </filter>
  <filter id="btnShadow" x="-20%" y="-20%" width="140%" height="140%">
    <feDropShadow dx="0" dy="4" stdDeviation="8" flood-color="#2563EB" flood-opacity="0.30"/>
  </filter>
  <filter id="modalShadow" x="-20%" y="-20%" width="140%" height="140%">
    <feDropShadow dx="0" dy="20" stdDeviation="40" flood-color="#0F172A" flood-opacity="0.25"/>
  </filter>
  <linearGradient id="brandGrad" x1="0" y1="0" x2="1" y2="1">
    <stop offset="0%" stop-color="#3B82F6"/>
    <stop offset="100%" stop-color="#1D4ED8"/>
  </linearGradient>
  <linearGradient id="loginBg" x1="0" y1="0" x2="1" y2="1">
    <stop offset="0%" stop-color="#EFF6FF"/>
    <stop offset="100%" stop-color="#DBEAFE"/>
  </linearGradient>
  <linearGradient id="heroOrb" x1="0" y1="0" x2="1" y2="1">
    <stop offset="0%" stop-color="#60A5FA" stop-opacity="0.5"/>
    <stop offset="100%" stop-color="#1D4ED8" stop-opacity="0.0"/>
  </linearGradient>
  <pattern id="dots" width="24" height="24" patternUnits="userSpaceOnUse">
    <circle cx="2" cy="2" r="1.2" fill="#2563EB" fill-opacity="0.10"/>
  </pattern>
</defs>
<rect x="0" y="0" width="1440" height="900" rx="0" fill="url(#loginBg)"/>
<rect x="0" y="0" width="1440" height="900" rx="0" fill="url(#dots)"/>
<circle cx="140" cy="760" r="220" fill="url(#heroOrb)"/>
<circle cx="1340" cy="120" r="280" fill="url(#heroOrb)"/>
<rect x="80" y="80" width="56" height="56" rx="14" fill="url(#brandGrad)" filter="url(#btnShadow)"/>
<g transform="translate(92,92)" stroke="#fff" stroke-width="2" fill="none"><rect x="3" y="3" width="7" height="7" rx="1.5"/><rect x="14" y="3" width="7" height="7" rx="1.5"/><rect x="3" y="14" width="7" height="7" rx="1.5"/><rect x="14" y="14" width="7" height="7" rx="1.5"/></g>
<text x="152" y="102" font-size="18" fill="#0F172A" font-weight="700" text-anchor="start">Usability</text>
<text x="152" y="122" font-size="18" fill="#2563EB" font-weight="700" text-anchor="start">Dashboard</text>
<rect x="80" y="200" width="230" height="30" rx="15" fill="#fff" stroke="#BFDBFE" stroke-width="1"/>
<circle cx="100" cy="215" r="4" fill="#2563EB"/>
<text x="116" y="220" font-size="12" fill="#1D4ED8" font-weight="600" text-anchor="start">ISO 9241-11 · Tests guiados</text>
<text x="80" y="296" font-size="46" fill="#0F172A" font-weight="800" text-anchor="start">Evaluaciones de</text>
<text x="80" y="350" font-size="46" fill="#2563EB" font-weight="800" text-anchor="start">usabilidad</text>
<text x="380" y="350" font-size="46" fill="#0F172A" font-weight="800" text-anchor="start">guiadas</text>
<text x="80" y="404" font-size="46" fill="#0F172A" font-weight="800" text-anchor="start">por datos.</text>
<text x="80" y="448" font-size="15" fill="#334155" font-weight="400" text-anchor="start">Planificá, ejecutá y documentá tests profesionales</text>
<text x="80" y="470" font-size="15" fill="#334155" font-weight="400" text-anchor="start">siguiendo estándares internacionales.</text>
<text x="80" y="540" font-size="24" fill="#1D4ED8" font-weight="800" text-anchor="start">4.6/5</text>
<text x="80" y="560" font-size="11" fill="#64748B" font-weight="600" text-anchor="start" letter-spacing="0.8">Satisfacción</text>
<text x="230" y="540" font-size="24" fill="#1D4ED8" font-weight="800" text-anchor="start">92%</text>
<text x="230" y="560" font-size="11" fill="#64748B" font-weight="600" text-anchor="start" letter-spacing="0.8">Efectividad</text>
<text x="380" y="540" font-size="24" fill="#1D4ED8" font-weight="800" text-anchor="start">ISO</text>
<text x="380" y="560" font-size="11" fill="#64748B" font-weight="600" text-anchor="start" letter-spacing="0.8">9241-11</text>
<text x="80" y="620" font-size="12" fill="#334155" font-weight="400" text-anchor="start">+1.2k equipos de UX confían en la plataforma</text>
<circle cx="82" cy="650" r="14" fill="#FCA5A5" stroke="#fff" stroke-width="2"/>
<circle cx="104" cy="650" r="14" fill="#FCD34D" stroke="#fff" stroke-width="2"/>
<circle cx="126" cy="650" r="14" fill="#86EFAC" stroke="#fff" stroke-width="2"/>
<circle cx="148" cy="650" r="14" fill="#93C5FD" stroke="#fff" stroke-width="2"/>
<circle cx="170" cy="650" r="14" fill="#C4B5FD" stroke="#fff" stroke-width="2"/>
<circle cx="192" cy="650" r="14" fill="#fff" stroke="#BFDBFE" stroke-width="2"/>
<text x="192" y="654" font-size="10" fill="#2563EB" font-weight="700" text-anchor="middle">+99</text>
<rect x="800" y="80" width="560" height="740" rx="20" fill="#fff" filter="url(#cardShadow)"/>
<rect x="800" y="80" width="560" height="6" rx="20" fill="url(#brandGrad)"/>
<text x="848" y="158" font-size="28" fill="#0F172A" font-weight="800" text-anchor="start">Bienvenido de nuevo</text>
<text x="848" y="186" font-size="13.5" fill="#334155" font-weight="400" text-anchor="start">Iniciá sesión para continuar tu investigación.</text>
<text x="848" y="242" font-size="13" fill="#0F172A" font-weight="700" text-anchor="start">Email</text>
<rect x="848" y="254" width="464" height="48" rx="10" fill="#fff" stroke="#E2E8F0" stroke-width="1"/>
<g transform="translate(862,266)" stroke="#64748B" stroke-width="2" fill="none" stroke-linecap="round" stroke-linejoin="round"><rect x="2" y="4" width="20" height="16" rx="2"/><path d="M2 7l10 7 10-7"/></g>
<text x="896" y="284" font-size="14" fill="#0F172A" font-weight="500" text-anchor="start">sebastian@ihc-lab.com</text>
<circle cx="1288" cy="278" r="8" fill="#10B981"/>
<g transform="translate(1276,266)"><path d="M5 12l4 4 10-10" stroke="#fff" stroke-width="2.5" fill="none" stroke-linecap="round" stroke-linejoin="round"/></g>
<text x="848" y="330" font-size="13" fill="#0F172A" font-weight="700" text-anchor="start">Contraseña</text>
<text x="1312" y="330" font-size="12" fill="#2563EB" font-weight="700" text-anchor="end">¿Olvidé mi contraseña?</text>
<rect x="848" y="342" width="464" height="48" rx="10" fill="#FEF2F2" stroke="#DC2626" stroke-width="1.5"/>
<g transform="translate(862,354)" stroke="#DC2626" stroke-width="2" fill="none" stroke-linecap="round" stroke-linejoin="round"><rect x="3" y="11" width="18" height="11" rx="2"/><path d="M7 11V7a5 5 0 0 1 10 0v4"/></g>
<text x="896" y="372" font-size="18" fill="#0F172A" font-weight="400" text-anchor="start">•••••••••••••</text>
<rect x="1208" y="354" width="88" height="24" rx="12" fill="#fff" stroke="#E2E8F0" stroke-width="1"/>
<g transform="translate(1216,358)" stroke="#334155" stroke-width="2" fill="none" stroke-linecap="round" stroke-linejoin="round"><path d="M2 12s3.5-7 10-7 10 7 10 7-3.5 7-10 7S2 12 2 12z"/><circle cx="12" cy="12" r="3"/></g>
<text x="1270" y="370" font-size="11" fill="#334155" font-weight="600" text-anchor="middle">Mostrar</text>
<circle cx="854" cy="412" r="8" fill="#DC2626"/>
<text x="854" y="415" font-size="11" fill="#fff" font-weight="800" text-anchor="middle">!</text>
<text x="872" y="416" font-size="12" fill="#DC2626" font-weight="600" text-anchor="start">Contraseña incorrecta. Te quedan 4 intentos.</text>
<rect x="848" y="452" width="18" height="18" rx="4" fill="#2563EB"/>
<g transform="translate(845,449)"><path d="M5 12l4 4 10-10" stroke="#fff" stroke-width="2.5" fill="none" stroke-linecap="round" stroke-linejoin="round"/></g>
<text x="874" y="467" font-size="13" fill="#0F172A" font-weight="500" text-anchor="start">Recordarme 30 días</text>
<rect x="1250" y="454" width="44" height="22" rx="11" fill="#2563EB"/>
<circle cx="1288" cy="465" r="9" fill="#fff"/>
<text x="1302" y="470" font-size="11" fill="#334155" font-weight="700" text-anchor="start">2FA</text>
<rect x="848" y="504" width="464" height="52" rx="12" fill="#2563EB" filter="url(#btnShadow)"/>
<circle cx="1022.0" cy="530" r="8" fill="none" stroke="#93C5FD" stroke-width="2.5"/>
<path d="M 1022.0 522 a 8 8 0 0 1 8 8" stroke="#fff" stroke-width="2.5" fill="none" stroke-linecap="round"/>
<text x="1040.0" y="536" font-size="14" fill="#fff" font-weight="700" text-anchor="start">Verificando credenciales…</text>
<rect x="848" y="572" width="464" height="48" rx="12" fill="#F1F5F9" stroke="#E2E8F0" stroke-width="1"/>
<text x="1080.0" y="602" font-size="12" fill="#64748B" font-weight="600" text-anchor="middle">Continuar con SSO  ·  Configurá tu workspace</text>
<line x1="848" y1="646" x2="1058.0" y2="646" stroke="#E2E8F0" stroke-width="1"/>
<line x1="1102.0" y1="646" x2="1312" y2="646" stroke="#E2E8F0" stroke-width="1"/>
<text x="1080.0" y="651" font-size="11" fill="#64748B" font-weight="400" text-anchor="middle">o continuá con</text>
<rect x="848" y="670" width="220.0" height="44" rx="10" fill="#fff" stroke="#E2E8F0" stroke-width="1"/>
<circle cx="870" cy="692" r="8" fill="#EA4335"/>
<text x="966.0" y="697" font-size="13" fill="#0F172A" font-weight="600" text-anchor="middle">Google</text>
<rect x="1092.0" y="670" width="220.0" height="44" rx="10" fill="#0F172A"/>
<text x="1202.0" y="697" font-size="13" fill="#fff" font-weight="600" text-anchor="middle"> GitHub</text>
<text x="1172.0" y="697" font-size="13" fill="#fff" font-weight="400" text-anchor="start"></text>
<text x="1080.0" y="756" font-size="12" fill="#334155" font-weight="400" text-anchor="middle">¿Primera vez en UsabilityDashboard?</text>
<text x="1080.0" y="776" font-size="13" fill="#2563EB" font-weight="700" text-anchor="middle">Crear cuenta gratis →</text>
<rect x="80" y="780" width="420" height="70" rx="12" fill="#fff" stroke="#E2E8F0" stroke-width="1" filter="url(#cardShadow)"/>
<rect x="80" y="780" width="4" height="70" rx="2" fill="#2563EB"/>
<circle cx="114" cy="815" r="14" fill="#EFF6FF" stroke="#BFDBFE" stroke-width="1"/>
<g transform="translate(102,803)" stroke="#2563EB" stroke-width="2" fill="none" stroke-linecap="round" stroke-linejoin="round"><rect x="3" y="11" width="18" height="11" rx="2"/><path d="M7 11V7a5 5 0 0 1 10 0v4"/></g>
<text x="138" y="810" font-size="13" fill="#0F172A" font-weight="700" text-anchor="start">Sesión segura</text>
<text x="138" y="830" font-size="11" fill="#64748B" font-weight="400" text-anchor="start">Conexión cifrada TLS · 2FA disponible</text>
</svg>