<svg xmlns="http://www.w3.org/2000/svg" width="1100" height="120" viewBox="0 0 1100 120" font-family="Inter, ui-sans-serif, system-ui, -apple-system, 'Segoe UI', Roboto, sans-serif"><defs>
  <filter id="cardShadow" x="-20%" y="-20%" width="140%" height="140%">
    <feDropShadow dx="0" dy="4" stdDeviation="10" flood-color="#0F172A" flood-opacity="0.06"/>
    <feDropShadow dx="0" dy="1" stdDeviation="2" flood-color="#0F172A" flood-opacity="0.04"/>
  </filter>
  <filter id="btnShadow" x="-20%" y="-20%" width="140%" height="140%">
    <feDropShadow dx="0" dy="4" stdDeviation="8" flood-color="#2563EB" flood-opacity="0.30"/>
  </filter>
  <filter id="modalShadow" x="-20%" y="-20%" width="140%" height="140%">
    <feDropShadow dx="0" dy="20" stdDeviation="40" flood-color="#0F172A" flood-opacity="0.25"/>
  </filter>
  <linearGradient id="brandGrad" x1="0" y1="0" x2="1" y2="1">
    <stop offset="0%" stop-color="#3B82F6"/>
    <stop offset="100%" stop-color="#1D4ED8"/>
  </linearGradient>
  <linearGradient id="loginBg" x1="0" y1="0" x2="1" y2="1">
    <stop offset="0%" stop-color="#EFF6FF"/>
    <stop offset="100%" stop-color="#DBEAFE"/>
  </linearGradient>
  <linearGradient id="heroOrb" x1="0" y1="0" x2="1" y2="1">
    <stop offset="0%" stop-color="#60A5FA" stop-opacity="0.5"/>
    <stop offset="100%" stop-color="#1D4ED8" stop-opacity="0.0"/>
  </linearGradient>
  <pattern id="dots" width="24" height="24" patternUnits="userSpaceOnUse">
    <circle cx="2" cy="2" r="1.2" fill="#2563EB" fill-opacity="0.10"/>
  </pattern>
</defs>
<rect x="0" y="0" width="1100" height="120" rx="0" fill="#fff"/>
<rect x="70" y="47" width="960" height="6" rx="3" fill="#E2E8F0"/>
<rect x="70" y="47" width="480.0" height="6" rx="3" fill="#2563EB"/>
<circle cx="70.0" cy="50" r="20" fill="#2563EB"/>
<g transform="translate(58.0,38)"><path d="M5 12l4 4 10-10" stroke="#fff" stroke-width="2.5" fill="none" stroke-linecap="round" stroke-linejoin="round"/></g>
<text x="70.0" y="100" font-size="13" fill="#0F172A" font-weight="500" text-anchor="middle">Información</text>
<circle cx="310.0" cy="50" r="20" fill="#2563EB"/>
<g transform="translate(298.0,38)"><path d="M5 12l4 4 10-10" stroke="#fff" stroke-width="2.5" fill="none" stroke-linecap="round" stroke-linejoin="round"/></g>
<text x="310.0" y="100" font-size="13" fill="#0F172A" font-weight="500" text-anchor="middle">Escenarios</text>
<circle cx="550.0" cy="50" r="22" fill="#fff" stroke="#2563EB" stroke-width="3"/>
<circle cx="550.0" cy="50" r="14" fill="#2563EB"/>
<text x="550.0" y="55" font-size="13" fill="#fff" font-weight="700" text-anchor="middle">3</text>
<text x="550.0" y="100" font-size="13" fill="#0F172A" font-weight="700" text-anchor="middle">Métricas</text>
<circle cx="790.0" cy="50" r="20" fill="#fff" stroke="#CBD5E1" stroke-width="2"/>
<text x="790.0" y="55" font-size="13" fill="#64748B" font-weight="700" text-anchor="middle">4</text>
<text x="790.0" y="100" font-size="13" fill="#64748B" font-weight="500" text-anchor="middle">Participantes</text>
<circle cx="1030.0" cy="50" r="20" fill="#fff" stroke="#CBD5E1" stroke-width="2"/>
<text x="1030.0" y="55" font-size="13" fill="#64748B" font-weight="700" text-anchor="middle">5</text>
<text x="1030.0" y="100" font-size="13" fill="#64748B" font-weight="500" text-anchor="middle">Revisión</text>
</svg>